# Blender 3.6.0
# www.blender.org
mtllib cube.mtl
o Cube.001
v 1.000000 1.000000 1.000000
v 1.000000 -1.000000 1.000000
v 1.000000 1.000000 -1.000000
v 1.000000 -1.000000 -1.000000
v -1.000000 1.000000 1.000000
v -1.000000 -1.000000 1.000000
v -1.000000 1.000000 -1.000000
v -1.000000 -1.000000 -1.000000
v 1.000000 0.836105 1.000000
v 1.000000 0.836104 -1.000000
v -1.000000 0.836105 1.000000
v -1.000000 0.836104 -1.000000
v 1.000000 -0.835892 1.000000
v 1.000000 -0.835892 -1.000000
v -1.000000 -0.835892 1.000000
v -1.000000 -0.835892 -1.000000
v 0.835968 0.836104 -1.000000
v 0.835968 1.000000 1.000000
v 0.835968 -1.000000 1.000000
v 0.835968 1.000000 -1.000000
v 0.835968 -1.000000 -1.000000
v 0.835968 0.836105 1.000000
v 0.835968 -0.835892 -1.000000
v 0.835968 -0.835892 1.000000
v -0.835792 1.000000 1.000000
v -0.835792 -1.000000 1.000000
v -0.835792 1.000000 -1.000000
v -0.835792 -1.000000 -1.000000
v -0.835792 0.836105 1.000000
v -0.835792 -0.835892 1.000000
v -0.835792 0.836104 -1.000000
v -0.835792 -0.835892 -1.000000
v 1.000000 0.836104 -0.836105
v 1.000000 1.000000 -0.836105
v -1.000000 -1.000000 -0.836104
v 1.000000 -1.000000 -0.836104
v -1.000000 1.000000 -0.836105
v -1.000000 0.836104 -0.836105
v -1.000000 -0.835892 -0.836104
v 1.000000 -0.835892 -0.836104
v 0.835968 -1.000000 -0.836104
v 0.835968 1.000000 -0.836105
v -0.835792 1.000000 -0.836105
v -0.835792 -1.000000 -0.836104
v 1.000000 0.836105 0.835892
v 1.000000 -0.835892 0.835892
v 1.000000 1.000000 0.835892
v -1.000000 -1.000000 0.835892
v 1.000000 -1.000000 0.835892
v -1.000000 1.000000 0.835892
v -1.000000 0.836105 0.835892
v -1.000000 -0.835892 0.835892
v 0.835968 -1.000000 0.835892
v 0.835968 1.000000 0.835892
v -0.835792 1.000000 0.835892
v -0.835792 -1.000000 0.835892
vn -1.0000 -0.0000 -0.0000
vn -0.0000 -0.0000 1.0000
vn -0.0000 -0.0000 -1.0000
vn -0.0000 1.0000 -0.0000
vn -0.0000 -1.0000 -0.0000
vn 1.0000 -0.0000 -0.0000
vt 0.918029 1.000024
vt 0.999976 0.917970
vt 0.918029 0.917970
vt 0.999980 0.918029
vt 0.917965 0.999976
vt 0.917965 0.918029
vt -0.000020 0.918029
vt 0.082085 0.999976
vt 0.082085 0.918029
vt 0.917965 1.000024
vt 0.999980 0.917970
vt 0.917965 0.917970
vt 0.082085 1.000024
vt -0.000020 0.917970
vt 0.082085 0.917970
vt 0.082030 0.000024
vt 0.918029 0.081971
vt 0.082030 0.081971
vt -0.000024 1.000024
vt 0.082030 0.917970
vt -0.000024 0.917970
vt -0.000020 -0.000024
vt 0.082085 0.082030
vt 0.082085 -0.000024
vt 0.999980 -0.000024
vt 0.917965 0.082030
vt 0.917965 -0.000024
vt 0.082030 1.000024
vt 0.999980 0.082030
vt -0.000020 0.082030
vt 0.918029 0.000024
vt 0.999976 0.081971
vt -0.000024 0.000024
vt -0.000024 0.081971
vt 0.999980 1.000024
vt 0.999980 0.999976
vt -0.000020 0.999976
vt -0.000020 1.000024
vt 0.917965 0.081971
vt 0.082085 0.000024
vt 0.917965 0.000024
vt -0.000020 0.081971
vt -0.000020 0.000024
vt 0.082085 0.081971
vt 0.999980 0.081971
vt 0.999980 0.000024
vt 0.999976 0.000024
vt 0.999976 1.000024
s 0
usemtl material.003
f 11/1/1 50/2/1 51/3/1
f 9/4/2 18/5/2 22/6/2
f 12/7/3 27/8/3 31/9/3
f 18/10/4 47/11/4 54/12/4
f 26/13/5 48/14/5 56/15/5
f 14/16/6 33/17/6 40/18/6
f 6/19/1 52/20/1 48/21/1
f 8/22/3 32/23/3 28/24/3
f 2/25/2 24/26/2 19/27/2
f 15/28/1 51/3/1 52/20/1
f 13/29/2 22/6/2 24/26/2
f 16/30/3 31/9/3 32/23/3
f 10/31/6 34/32/6 33/17/6
f 4/33/6 40/18/6 36/34/6
f 23/26/3 10/4/3 14/29/3
f 19/27/2 30/23/2 26/24/2
f 21/27/3 14/29/3 4/25/3
f 2/35/5 53/12/5 49/11/5
f 25/13/4 54/12/4 55/15/4
f 17/6/3 3/36/3 10/4/3
f 22/6/2 25/8/2 29/9/2
f 29/9/2 5/37/2 11/7/2
f 5/38/4 55/15/4 50/14/4
f 26/24/2 15/30/2 6/22/2
f 30/23/2 11/7/2 15/30/2
f 28/24/3 23/26/3 21/27/3
f 19/10/5 56/15/5 53/12/5
f 31/9/3 20/5/3 17/6/3
f 41/39/5 28/40/5 21/41/5
f 37/42/4 27/40/4 7/43/4
f 43/44/4 20/41/4 27/40/4
f 36/45/5 21/41/5 4/46/5
f 36/34/6 46/20/6 49/21/6
f 33/17/6 47/2/6 45/3/6
f 39/18/1 12/31/1 16/16/1
f 35/34/1 16/16/1 8/33/1
f 44/44/5 8/43/5 28/40/5
f 42/39/4 3/46/4 20/41/4
f 38/17/1 7/47/1 12/31/1
f 46/20/6 9/1/6 13/28/6
f 45/3/6 1/48/6 9/1/6
f 49/21/6 13/28/6 2/19/6
f 50/14/4 43/44/4 37/42/4
f 49/11/5 41/39/5 36/45/5
f 48/21/1 39/18/1 35/34/1
f 56/15/5 35/42/5 44/44/5
f 54/12/4 34/45/4 42/39/4
f 51/3/1 37/32/1 38/17/1
f 11/1/1 5/48/1 50/2/1
f 9/4/2 1/36/2 18/5/2
f 12/7/3 7/37/3 27/8/3
f 18/10/4 1/35/4 47/11/4
f 26/13/5 6/38/5 48/14/5
f 14/16/6 10/31/6 33/17/6
f 6/19/1 15/28/1 52/20/1
f 8/22/3 16/30/3 32/23/3
f 2/25/2 13/29/2 24/26/2
f 15/28/1 11/1/1 51/3/1
f 13/29/2 9/4/2 22/6/2
f 16/30/3 12/7/3 31/9/3
f 10/31/6 3/47/6 34/32/6
f 4/33/6 14/16/6 40/18/6
f 23/26/3 17/6/3 10/4/3
f 19/27/2 24/26/2 30/23/2
f 21/27/3 23/26/3 14/29/3
f 2/35/5 19/10/5 53/12/5
f 25/13/4 18/10/4 54/12/4
f 17/6/3 20/5/3 3/36/3
f 22/6/2 18/5/2 25/8/2
f 29/9/2 25/8/2 5/37/2
f 5/38/4 25/13/4 55/15/4
f 26/24/2 30/23/2 15/30/2
f 30/23/2 29/9/2 11/7/2
f 28/24/3 32/23/3 23/26/3
f 19/10/5 26/13/5 56/15/5
f 31/9/3 27/8/3 20/5/3
f 41/39/5 44/44/5 28/40/5
f 37/42/4 43/44/4 27/40/4
f 43/44/4 42/39/4 20/41/4
f 36/45/5 41/39/5 21/41/5
f 36/34/6 40/18/6 46/20/6
f 33/17/6 34/32/6 47/2/6
f 39/18/1 38/17/1 12/31/1
f 35/34/1 39/18/1 16/16/1
f 44/44/5 35/42/5 8/43/5
f 42/39/4 34/45/4 3/46/4
f 38/17/1 37/32/1 7/47/1
f 46/20/6 45/3/6 9/1/6
f 45/3/6 47/2/6 1/48/6
f 49/21/6 46/20/6 13/28/6
f 50/14/4 55/15/4 43/44/4
f 49/11/5 53/12/5 41/39/5
f 48/21/1 52/20/1 39/18/1
f 56/15/5 48/14/5 35/42/5
f 54/12/4 47/11/4 34/45/4
f 51/3/1 50/2/1 37/32/1
usemtl Material.001
f 24/26/2 29/9/2 30/23/2
f 32/23/3 17/6/3 23/26/3
f 40/18/6 45/3/6 46/20/6
f 53/12/5 44/44/5 41/39/5
f 55/15/4 42/39/4 43/44/4
f 52/20/1 38/17/1 39/18/1
f 24/26/2 22/6/2 29/9/2
f 32/23/3 31/9/3 17/6/3
f 40/18/6 33/17/6 45/3/6
f 53/12/5 56/15/5 44/44/5
f 55/15/4 54/12/4 42/39/4
f 52/20/1 51/3/1 38/17/1
