# Blender 3.5.1
# www.blender.org
mtllib plane.mtl
o Plane
v -3.500000 0.000000 3.500000
v 3.500000 0.000000 3.500000
v -3.500000 -0.000000 -3.500000
v 3.500000 -0.000000 -3.500000
v -2.500000 0.000000 3.500000
v -1.500000 0.000000 3.500000
v -0.500000 0.000000 3.500000
v 0.500000 0.000000 3.500000
v 1.500000 0.000000 3.500000
v 2.500000 0.000000 3.500000
v 2.500000 -0.000000 -3.500000
v 1.500000 -0.000000 -3.500000
v 0.500000 -0.000000 -3.500000
v -0.500000 -0.000000 -3.500000
v -1.500000 -0.000000 -3.500000
v -2.500000 -0.000000 -3.500000
v -3.500000 -0.000000 -2.500000
v -3.500000 -0.000000 -1.500000
v -3.500000 -0.000000 -0.500000
v -3.500000 0.000000 0.500000
v -3.500000 0.000000 1.500000
v -3.500000 0.000000 2.500000
v 3.500000 0.000000 2.500000
v 3.500000 0.000000 1.500000
v 3.500000 0.000000 0.500000
v 3.500000 -0.000000 -0.500000
v 3.500000 -0.000000 -1.500000
v 3.500000 -0.000000 -2.500000
v -2.500000 0.000000 2.500000
v -2.500000 0.000000 1.500000
v -2.500000 0.000000 0.500000
v -2.500000 -0.000000 -0.500000
v -2.500000 -0.000000 -1.500000
v -2.500000 -0.000000 -2.500000
v -1.500000 0.000000 2.500000
v -1.500000 0.000000 1.500000
v -1.500000 0.000000 0.500000
v -1.500000 -0.000000 -0.500000
v -1.500000 -0.000000 -1.500000
v -1.500000 -0.000000 -2.500000
v -0.500000 0.000000 2.500000
v -0.500000 0.000000 1.500000
v -0.500000 0.000000 0.500000
v -0.500000 -0.000000 -0.500000
v -0.500000 -0.000000 -1.500000
v -0.500000 -0.000000 -2.500000
v 0.500000 0.000000 2.500000
v 0.500000 0.000000 1.500000
v 0.500000 0.000000 0.500000
v 0.500000 -0.000000 -0.500000
v 0.500000 -0.000000 -1.500000
v 0.500000 -0.000000 -2.500000
v 1.500000 0.000000 2.500000
v 1.500000 0.000000 1.500000
v 1.500000 0.000000 0.500000
v 1.500000 -0.000000 -0.500000
v 1.500000 -0.000000 -1.500000
v 1.500000 -0.000000 -2.500000
v 2.500000 0.000000 2.500000
v 2.500000 0.000000 1.500000
v 2.500000 0.000000 0.500000
v 2.500000 -0.000000 -0.500000
v 2.500000 -0.000000 -1.500000
v 2.500000 -0.000000 -2.500000
v -2.500000 1.000000 0.500000
v -2.500000 1.000000 -0.500000
v -2.500000 1.000000 -1.500000
v -2.500000 1.000000 -2.500000
v -1.500000 1.000000 0.500000
v -1.500000 1.000000 -0.500000
v -1.500000 1.000000 -1.500000
v -1.500000 1.000000 -2.500000
v -0.500000 1.000000 -1.500000
v -0.500000 1.000000 -2.500000
v 0.500000 1.000000 -1.500000
v 0.500000 1.000000 -2.500000
v 1.500000 1.000000 0.500000
v 1.500000 1.000000 -0.500000
v 1.500000 1.000000 -1.500000
v 1.500000 1.000000 -2.500000
v 2.500000 1.000000 0.500000
v 2.500000 1.000000 -0.500000
v 2.500000 1.000000 -1.500000
v 2.500000 1.000000 -2.500000
v 1.500000 2.000000 -1.500000
v 1.500000 2.000000 -2.500000
v 2.500000 2.000000 -1.500000
v 2.500000 2.000000 -2.500000
v -2.500000 2.000000 -1.500000
v -2.500000 2.000000 -2.500000
v -1.500000 2.000000 -1.500000
v -1.500000 2.000000 -2.500000
vn -0.0000 1.0000 -0.0000
vn -0.0000 -0.0000 1.0000
vn -1.0000 -0.0000 -0.0000
vn -0.0000 -0.0000 -1.0000
vn 1.0000 -0.0000 -0.0000
vt 0.000000 0.875000
vt 0.125000 0.875000
vt 0.000000 1.000000
vt 0.125000 1.000000
vt 0.125000 0.875000
vt 0.000000 0.875000
vt 0.125000 0.875000
vt 0.000000 0.875000
vt 0.125000 0.875000
vt 0.000000 0.875000
vt 0.125000 0.875000
vt 0.000000 0.875000
vt 0.125000 0.875000
vt 0.000000 0.875000
vt 0.125000 0.875000
vt 0.000000 0.875000
vt 0.000000 1.000000
vt 0.125000 1.000000
vt 0.125000 1.000000
vt 0.000000 1.000000
vt 0.000000 1.000000
vt 0.125000 1.000000
vt 0.125000 1.000000
vt 0.000000 1.000000
vt 0.125000 1.000000
vt 0.000000 1.000000
vt 0.000000 1.000000
vt 0.125000 1.000000
vt 0.000000 1.000000
vt 0.000000 0.875000
vt 0.000000 1.000000
vt 0.000000 0.875000
vt 0.000000 1.000000
vt 0.000000 0.875000
vt 0.000000 0.875000
vt 0.000000 1.000000
vt 0.000000 0.875000
vt 0.000000 1.000000
vt 0.000000 1.000000
vt 0.000000 0.875000
vt 0.125000 0.875000
vt 0.125000 1.000000
vt 0.125000 0.875000
vt 0.125000 1.000000
vt 0.125000 0.875000
vt 0.125000 1.000000
vt 0.125000 0.875000
vt 0.125000 1.000000
vt 0.125000 0.875000
vt 0.125000 1.000000
vt 0.125000 0.875000
vt 0.125000 1.000000
vt 0.125000 0.875000
vt 0.000000 0.875000
vt 0.125000 1.000000
vt 0.000000 1.000000
vt 0.125000 0.875000
vt 0.000000 1.000000
vt 0.000000 0.875000
vt 0.125000 1.000000
vt 0.125000 0.875000
vt 0.000000 0.875000
vt 0.000000 1.000000
vt 0.125000 1.000000
vt 0.125000 0.875000
vt 0.125000 1.000000
vt 0.000000 0.875000
vt 0.125000 0.875000
vt 0.125000 1.000000
vt 0.000000 0.875000
vt 0.125000 0.875000
vt 0.125000 1.000000
vt 0.000000 0.875000
vt 0.125000 0.875000
vt 0.000000 1.000000
vt 0.125000 1.000000
vt 0.000000 0.875000
vt 0.125000 0.875000
vt 0.125000 1.000000
vt 0.000000 0.875000
vt 0.000000 1.000000
vt 0.125000 0.875000
vt 0.125000 1.000000
vt 0.000000 1.000000
vt 0.000000 0.875000
vt 0.125000 0.875000
vt 0.000000 0.875000
vt 0.000000 1.000000
vt 0.125000 0.875000
vt 0.000000 1.000000
vt 0.000000 0.875000
vt 0.125000 0.875000
vt 0.000000 0.875000
vt 0.125000 0.875000
vt 0.125000 1.000000
vt 0.000000 1.000000
vt 0.000000 0.875000
vt 0.125000 0.875000
vt 0.000000 0.875000
vt 0.000000 1.000000
vt 0.125000 1.000000
vt 0.125000 0.875000
vt 0.000000 1.000000
vt 0.000000 0.875000
vt 0.125000 1.000000
vt 0.125000 0.875000
vt 0.000000 1.000000
vt 0.125000 1.000000
vt 0.000000 0.875000
vt 0.125000 0.875000
vt 0.125000 1.000000
vt 0.000000 1.000000
vt 0.000000 0.875000
vt 0.125000 0.875000
vt 0.000000 0.875000
vt 0.000000 1.000000
vt 0.125000 0.875000
vt 0.125000 1.000000
vt 0.000000 0.875000
vt 0.000000 1.000000
vt 0.125000 0.875000
vt 0.000000 0.875000
vt 0.000000 1.000000
vt 0.125000 1.000000
vt 0.125000 0.875000
vt 0.000000 1.000000
vt 0.125000 1.000000
vt 0.000000 0.875000
vt 0.125000 0.875000
vt 0.000000 0.875000
vt 0.000000 1.000000
vt 0.125000 1.000000
vt 0.125000 0.875000
vt 0.000000 1.000000
vt 0.000000 0.875000
vt 0.125000 1.000000
vt 0.125000 0.875000
vt 0.000000 0.875000
vt 0.125000 1.000000
vt 0.125000 0.875000
vt 0.000000 0.875000
vt 0.000000 1.000000
vt 0.125000 1.000000
vt 0.125000 0.875000
vt 0.000000 1.000000
vt 0.000000 0.875000
vt 0.125000 1.000000
vt 0.125000 0.875000
vt 0.125000 1.000000
vt 0.000000 1.000000
vt 0.000000 0.875000
vt 0.125000 0.875000
vt 0.000000 0.875000
vt 0.125000 1.000000
vt 0.125000 0.875000
vt 0.125000 1.000000
vt 0.000000 0.875000
vt 0.125000 0.875000
vt 0.000000 0.875000
vt 0.125000 0.875000
vt 0.125000 1.000000
vt 0.000000 1.000000
vt 0.000000 0.875000
vt 0.125000 0.875000
vt 0.125000 1.000000
vt 0.000000 0.875000
vt 0.000000 1.000000
vt 0.125000 0.875000
vt 0.000000 1.000000
vt 0.125000 1.000000
vt 0.000000 0.875000
vt 0.125000 0.875000
vt 0.000000 1.000000
vt 0.000000 0.875000
vt 0.125000 0.875000
vt 0.000000 1.000000
vt 0.000000 0.875000
vt 0.125000 0.875000
vt 0.000000 0.875000
vt 0.000000 1.000000
vt 0.000000 1.000000
vt 0.125000 1.000000
vt 0.000000 0.875000
vt 0.125000 1.000000
vt 0.000000 1.000000
vt 0.000000 0.875000
vt 0.125000 0.875000
vt 0.125000 1.000000
vt 0.000000 0.875000
vt 0.000000 1.000000
vt 0.125000 0.875000
vt 0.000000 1.000000
vt 0.125000 1.000000
vt 0.000000 0.875000
vt 0.125000 0.875000
vt 0.125000 1.000000
vt 0.000000 1.000000
vt 0.125000 0.875000
vt 0.000000 1.000000
vt 0.125000 1.000000
vt 0.125000 0.875000
vt 0.000000 0.875000
vt 0.000000 1.000000
vt 0.125000 1.000000
vt 0.125000 0.875000
vt 0.125000 1.000000
vt 0.000000 1.000000
vt 0.000000 0.875000
vt 0.125000 0.875000
vt 0.125000 1.000000
vt 0.000000 1.000000
vt 0.000000 1.000000
vt 0.125000 1.000000
vt 0.125000 1.000000
vt 0.000000 0.875000
vt 0.000000 1.000000
vt 0.000000 1.000000
vt 0.125000 1.000000
vt 0.125000 1.000000
vt 0.000000 0.875000
vt 0.000000 1.000000
vt 0.125000 1.000000
vt 0.000000 1.000000
vt 0.000000 0.875000
vt 0.125000 0.875000
vt 0.000000 0.875000
vt 0.000000 1.000000
vt 0.125000 1.000000
vt 0.125000 0.875000
vt 0.125000 1.000000
vt 0.000000 1.000000
vt 0.000000 0.875000
vt 0.125000 0.875000
vt 0.000000 1.000000
vt 0.125000 1.000000
vt 0.125000 0.875000
vt 0.125000 1.000000
vt 0.000000 1.000000
vt 0.125000 0.875000
vt 0.000000 1.000000
vt 0.125000 1.000000
vt 0.000000 0.875000
vt 0.125000 0.875000
vt 0.000000 1.000000
vt 0.125000 1.000000
vt 0.000000 0.875000
vt 0.000000 1.000000
vt 0.000000 0.875000
vt 0.125000 1.000000
vt 0.125000 1.000000
vt 0.000000 1.000000
vt 0.125000 0.875000
vt 0.125000 1.000000
vt 0.000000 1.000000
vt 0.125000 1.000000
vt 0.000000 1.000000
vt 0.000000 1.000000
vt 0.000000 0.875000
vt 0.125000 1.000000
vt 0.000000 1.000000
vt 0.125000 1.000000
vt 0.125000 0.875000
vt 0.125000 1.000000
vt 0.000000 1.000000
vt 0.125000 1.000000
vt 0.000000 1.000000
s 0
usemtl Material.001
f 32/66/1 20/35/1 31/61/1
f 41/95/1 6/8/1 7/9/1
f 47/118/1 7/10/1 8/11/1
f 57/156/1 50/130/1 56/152/1
f 55/149/1 48/122/1 54/144/1
f 69/196/2 31/62/2 37/82/2
f 78/222/3 57/157/3 56/152/3
f 60/165/1 53/141/1 59/160/1
f 49/127/1 42/99/1 48/121/1
f 75/214/3 52/138/3 51/133/3
f 80/230/4 64/179/4 58/158/4
f 71/204/5 38/87/5 39/89/5
f 67/188/3 34/73/3 33/68/3
f 45/111/1 38/87/1 44/106/1
f 25/46/1 60/166/1 24/43/1
f 36/79/1 29/54/1 35/74/1
f 37/83/1 30/59/1 36/78/1
f 61/170/1 54/146/1 60/164/1
f 77/219/3 56/153/3 55/148/3
f 54/147/1 47/119/1 53/140/1
f 59/161/1 9/14/1 10/15/1
f 27/50/1 62/174/1 26/47/1
f 82/237/5 61/171/5 62/172/5
f 91/263/2 67/189/2 71/201/2
f 56/154/1 49/128/1 55/148/1
f 23/42/1 10/16/1 2/2/1
f 82/237/1 77/220/1 81/233/1
f 26/48/1 61/171/1 25/45/1
f 31/64/1 21/37/1 30/57/1
f 12/19/1 52/138/1 58/158/1
f 84/245/5 63/177/5 64/178/5
f 33/69/1 19/34/1 32/65/1
f 80/230/1 75/215/1 79/225/1
f 24/44/1 59/163/1 23/41/1
f 50/132/1 43/104/1 49/125/1
f 68/193/4 40/93/4 34/71/4
f 81/235/2 55/151/2 61/168/2
f 34/72/1 18/32/1 33/68/1
f 43/105/1 36/80/1 42/98/1
f 15/25/1 34/73/1 40/92/1
f 16/28/1 17/30/1 34/71/1
f 48/124/1 41/97/1 47/117/1
f 53/143/1 8/12/1 9/13/1
f 14/23/1 40/93/1 46/114/1
f 66/184/3 33/70/3 32/65/3
f 4/4/1 64/179/1 28/51/1
f 70/200/5 37/85/5 38/86/5
f 29/55/1 1/1/1 5/5/1
f 35/76/1 5/6/1 6/7/1
f 87/253/2 79/226/2 83/239/2
f 92/265/5 71/202/5 72/205/5
f 44/108/1 37/85/1 43/102/1
f 72/206/4 46/115/4 40/92/4
f 11/18/1 58/159/1 64/178/1
f 83/241/5 62/174/5 63/175/5
f 13/22/1 46/115/1 52/137/1
f 88/255/1 85/248/1 87/252/1
f 74/213/1 71/202/1 73/209/1
f 30/60/1 22/40/1 29/53/1
f 83/241/1 78/224/1 82/236/1
f 73/210/2 39/91/2 45/110/2
f 88/255/5 83/242/5 84/243/5
f 74/213/5 45/113/5 46/114/5
f 42/101/1 35/77/1 41/94/1
f 79/228/2 51/135/2 57/155/2
f 76/218/4 58/159/4 52/137/4
f 65/182/3 32/67/3 31/61/3
f 70/200/1 65/183/1 69/195/1
f 92/265/1 89/258/1 91/262/1
f 86/250/4 84/246/4 80/229/4
f 85/249/3 80/232/3 79/225/3
f 51/136/1 44/109/1 50/129/1
f 71/204/1 66/186/1 70/198/1
f 89/259/3 68/194/3 67/187/3
f 90/261/4 72/208/4 68/191/4
f 52/139/1 45/113/1 51/133/1
f 28/52/1 63/177/1 27/49/1
f 32/66/1 19/33/1 20/35/1
f 41/95/1 35/75/1 6/8/1
f 47/118/1 41/96/1 7/10/1
f 57/156/1 51/134/1 50/130/1
f 55/149/1 49/126/1 48/122/1
f 69/196/2 65/181/2 31/62/2
f 78/222/3 79/227/3 57/157/3
f 60/165/1 54/145/1 53/141/1
f 49/127/1 43/103/1 42/99/1
f 75/214/3 76/217/3 52/138/3
f 80/230/4 84/244/4 64/179/4
f 71/204/5 70/199/5 38/87/5
f 67/188/3 68/192/3 34/73/3
f 45/111/1 39/90/1 38/87/1
f 25/46/1 61/169/1 60/166/1
f 36/79/1 30/58/1 29/54/1
f 37/83/1 31/63/1 30/59/1
f 61/170/1 55/150/1 54/146/1
f 77/219/3 78/223/3 56/153/3
f 54/147/1 48/123/1 47/119/1
f 59/161/1 53/142/1 9/14/1
f 27/50/1 63/176/1 62/174/1
f 82/237/5 81/234/5 61/171/5
f 91/263/2 89/257/2 67/189/2
f 56/154/1 50/131/1 49/128/1
f 23/42/1 59/162/1 10/16/1
f 82/237/1 78/223/1 77/220/1
f 26/48/1 62/173/1 61/171/1
f 31/64/1 20/36/1 21/37/1
f 12/19/1 13/21/1 52/138/1
f 84/245/5 83/240/5 63/177/5
f 33/69/1 18/31/1 19/34/1
f 80/230/1 76/217/1 75/215/1
f 24/44/1 60/167/1 59/163/1
f 50/132/1 44/107/1 43/104/1
f 68/193/4 72/207/4 40/93/4
f 81/235/2 77/221/2 55/151/2
f 34/72/1 17/29/1 18/32/1
f 43/105/1 37/84/1 36/80/1
f 15/25/1 16/27/1 34/73/1
f 16/28/1 3/3/1 17/30/1
f 48/124/1 42/100/1 41/97/1
f 53/143/1 47/120/1 8/12/1
f 14/23/1 15/26/1 40/93/1
f 66/184/3 67/190/3 33/70/3
f 4/4/1 11/17/1 64/179/1
f 70/200/5 69/197/5 37/85/5
f 29/55/1 22/39/1 1/1/1
f 35/76/1 29/56/1 5/6/1
f 87/253/2 85/247/2 79/226/2
f 92/265/5 91/264/5 71/202/5
f 44/108/1 38/88/1 37/85/1
f 72/206/4 74/212/4 46/115/4
f 11/18/1 12/20/1 58/159/1
f 83/241/5 82/238/5 62/174/5
f 13/22/1 14/24/1 46/115/1
f 88/255/1 86/251/1 85/248/1
f 74/213/1 72/207/1 71/202/1
f 30/60/1 21/38/1 22/40/1
f 83/241/1 79/227/1 78/224/1
f 73/210/2 71/203/2 39/91/2
f 88/255/5 87/254/5 83/242/5
f 74/213/5 73/211/5 45/113/5
f 42/101/1 36/81/1 35/77/1
f 79/228/2 75/216/2 51/135/2
f 76/218/4 80/231/4 58/159/4
f 65/182/3 66/185/3 32/67/3
f 70/200/1 66/185/1 65/183/1
f 92/265/1 90/260/1 89/258/1
f 86/250/4 88/256/4 84/246/4
f 85/249/3 86/251/3 80/232/3
f 51/136/1 45/112/1 44/109/1
f 71/204/1 67/190/1 66/186/1
f 89/259/3 90/260/3 68/194/3
f 90/261/4 92/266/4 72/208/4
f 52/139/1 46/116/1 45/113/1
f 28/52/1 64/180/1 63/177/1
