# Blender 3.6.0
# www.blender.org
mtllib worm.mtl
o Cube
v -0.500000 -0.774810 0.712098
v -0.666667 0.309653 0.817039
v -0.500000 -0.751775 -0.274297
v -0.666667 0.879642 -0.349643
v 0.500000 -0.774810 0.712098
v 0.666667 0.309653 0.817039
v 0.500000 -0.751775 -0.274297
v 0.666667 0.879642 -0.349643
v -0.666667 1.213404 1.529519
v -0.666667 2.284429 0.876072
v 0.666667 2.284429 0.876072
v 0.666667 1.213403 1.529520
v -0.500000 1.238198 2.639469
v -0.500000 2.004389 2.650423
v 0.500000 2.004389 2.650423
v 0.500000 1.238198 2.639469
v -0.609568 -0.868835 0.232654
v -0.638117 -0.337181 0.783785
v -0.916667 0.594648 0.233698
v -0.638117 -0.125987 -0.436621
v 0.000000 -0.877266 -0.372531
v 0.000000 0.986515 -0.568396
v 0.638117 -0.125987 -0.436621
v 0.609568 -0.868835 0.232654
v 0.916667 0.594648 0.233698
v 0.638117 -0.337181 0.783785
v -0.000000 -0.860405 0.837838
v 0.000000 0.202780 1.035792
v -0.916667 1.748916 1.202796
v 0.000000 2.485246 0.753550
v 0.916667 1.748916 1.202796
v 0.000000 1.012586 1.652041
v -0.666667 0.883901 1.052820
v -0.666667 1.777997 0.077812
v 0.666667 0.883901 1.052820
v 0.666667 1.777997 0.077812
v -0.609568 1.587319 2.765243
v 0.000000 2.046629 2.802489
v 0.609568 1.587319 2.765244
v -0.000000 1.128009 2.727998
v 0.638117 1.242066 2.164673
v -0.638117 1.242066 2.164673
v -0.638117 2.265463 1.939546
v 0.638117 2.265463 1.939546
v -0.878087 -0.241989 0.174938
v 0.000000 -0.101582 -0.665593
v 0.878087 -0.241989 0.174938
v 0.000000 -0.382396 1.015469
v 0.000000 -1.090326 0.261516
v -0.916667 1.330949 0.565316
v -0.000000 1.047966 2.212201
v 0.000000 0.716259 1.235634
v 0.000000 1.945640 -0.105002
v 0.916667 1.330949 0.565316
v -0.000000 1.516020 3.017698
v -0.000000 2.452864 1.915738
v 0.878086 1.750415 2.063970
v -0.878086 1.750415 2.063970
vn -0.9042 -0.3298 0.2713
vn -0.9318 -0.0595 0.3580
vn -0.9297 -0.0170 -0.3680
vn -0.8726 -0.3996 -0.2809
vn -0.2629 -0.3410 -0.9026
vn -0.3393 0.0715 -0.9380
vn 0.3393 0.0715 -0.9380
vn 0.2629 -0.3410 -0.9026
vn 0.8726 -0.3996 -0.2809
vn 0.9297 -0.0170 -0.3680
vn 0.9318 -0.0595 0.3580
vn 0.9042 -0.3298 0.2713
vn 0.2833 -0.3341 0.8990
vn 0.3431 -0.0326 0.9387
vn -0.3431 -0.0326 0.9387
vn -0.2833 -0.3341 0.8990
vn -0.3164 -0.9070 -0.2778
vn 0.2878 -0.9078 -0.3051
vn 0.2445 -0.9006 0.3593
vn -0.3408 -0.9048 0.2553
vn -0.9299 0.1580 -0.3320
vn -0.9291 -0.1519 0.3372
vn -0.9317 -0.3038 0.1992
vn -0.9312 0.3078 -0.1953
vn -0.2975 -0.9531 0.0564
vn 0.2946 -0.9537 0.0602
vn 0.2379 -0.9598 0.1489
vn -0.2954 -0.9522 0.0782
vn -0.3297 -0.3586 0.8733
vn 0.3420 -0.3408 0.8757
vn 0.3320 -0.7685 0.5469
vn -0.3410 -0.7733 0.5345
vn 0.3430 0.4036 -0.8482
vn -0.3356 0.4098 -0.8482
vn -0.3377 0.7969 -0.5009
vn 0.3327 0.7963 -0.5052
vn 0.9330 -0.1367 0.3330
vn 0.9331 0.1476 -0.3278
vn 0.9289 0.3097 -0.2031
vn 0.9287 -0.3050 0.2108
vn 0.3002 0.3257 0.8966
vn -0.3218 0.3559 0.8774
vn -0.2640 -0.5770 0.7729
vn 0.3889 -0.4179 0.8211
vn 0.2808 0.9594 0.0246
vn -0.2838 0.9585 0.0267
vn -0.1994 0.8909 0.4081
vn 0.2481 0.8927 0.3761
vn 0.9072 -0.4165 0.0596
vn 0.9020 0.4299 0.0397
vn 0.8513 0.3348 0.4039
vn 0.8920 -0.3723 0.2564
vn -0.8981 0.4387 0.0319
vn -0.9148 -0.4017 0.0417
vn -0.8928 -0.3708 0.2556
vn -0.8227 0.4630 0.3299
vn -0.8879 -0.3532 0.2947
vn -0.9287 -0.0684 0.3646
vn -0.9205 0.0077 -0.3907
vn -0.8692 -0.2948 -0.3970
vn -0.3117 -0.3024 -0.9008
vn -0.3228 0.0842 -0.9427
vn 0.3228 0.0842 -0.9427
vn 0.3117 -0.3024 -0.9008
vn 0.8692 -0.2948 -0.3970
vn 0.9205 0.0077 -0.3907
vn 0.9287 -0.0684 0.3646
vn 0.8879 -0.3532 0.2947
vn 0.3459 -0.2570 0.9024
vn 0.3202 -0.0627 0.9453
vn -0.3202 -0.0627 0.9453
vn -0.3459 -0.2570 0.9024
vn -0.2878 -0.9078 -0.3051
vn 0.3164 -0.9070 -0.2778
vn 0.3408 -0.9048 0.2553
vn -0.2445 -0.9006 0.3593
vn -0.9331 0.1476 -0.3278
vn -0.9330 -0.1367 0.3330
vn -0.9287 -0.3050 0.2108
vn -0.9289 0.3097 -0.2031
vn -0.2946 -0.9537 0.0602
vn 0.2975 -0.9531 0.0564
vn 0.2954 -0.9522 0.0782
vn -0.2379 -0.9598 0.1489
vn -0.3420 -0.3408 0.8757
vn 0.3297 -0.3586 0.8733
vn 0.3410 -0.7733 0.5345
vn -0.3320 -0.7685 0.5469
vn 0.3356 0.4098 -0.8482
vn -0.3430 0.4036 -0.8482
vn -0.3327 0.7963 -0.5052
vn 0.3377 0.7969 -0.5009
vn 0.9291 -0.1519 0.3372
vn 0.9299 0.1580 -0.3320
vn 0.9312 0.3078 -0.1953
vn 0.9317 -0.3038 0.1992
vn 0.3218 0.3559 0.8774
vn -0.3002 0.3257 0.8966
vn -0.3889 -0.4179 0.8211
vn 0.2640 -0.5770 0.7729
vn 0.2838 0.9585 0.0267
vn -0.2808 0.9594 0.0246
vn -0.2481 0.8927 0.3761
vn 0.1994 0.8909 0.4081
vn 0.9148 -0.4017 0.0417
vn 0.8981 0.4387 0.0319
vn 0.8227 0.4630 0.3299
vn 0.8928 -0.3708 0.2556
vn -0.9020 0.4299 0.0397
vn -0.9072 -0.4165 0.0596
vn -0.8920 -0.3723 0.2564
vn -0.8513 0.3348 0.4039
vt -0.377397 0.501450
vt -0.344972 1.172250
vt -0.557504 0.837756
vt -0.025643 0.061155
vt -0.005432 0.779387
vt 0.439520 0.200488
vt 0.492669 1.083612
vt 0.059260 1.403813
vt 1.592959 2.836836
vt 1.833553 2.183792
vt 1.988289 2.877931
vt 1.286294 1.437042
vt 1.375618 2.299006
vt 2.385903 1.275862
vt 2.428137 2.144728
vt 2.417665 2.715951
vt -1.162118 1.414314
vt -1.294154 0.836958
vt -0.822491 1.193934
vt -1.658390 1.113811
vt -1.750286 0.264192
vt -1.165047 0.089188
vt -0.805464 0.524842
vt -0.557504 0.843018
vt -0.459067 2.894937
vt -0.101322 2.516789
vt -0.089678 2.959193
vt -0.557504 2.502336
vt -0.058683 2.009698
vt 0.496088 2.534519
vt 0.366480 2.920154
vt 3.307917 1.480178
vt 2.896976 0.964581
vt 3.451140 1.076438
vt 2.468796 1.303873
vt 2.846979 1.487590
vt 2.612019 0.461940
vt 3.032298 0.450347
vt 3.451140 0.638245
vt 1.021668 0.379570
vt 0.667865 -0.471143
vt 1.286294 -0.453340
vt 0.166421 -0.449197
vt 0.522737 -1.116985
vt 1.094637 -1.251105
vt -1.905297 2.361728
vt -1.358747 1.852897
vt -1.288575 2.405032
vt -2.451140 1.917435
vt -1.943808 1.872054
vt -2.371675 1.500283
vt -1.970696 1.414313
vt -1.515724 1.449715
vt 0.563675 1.972829
vt -0.073797 1.532886
vt 0.543225 1.437436
vt -0.537055 1.939206
vt -1.925437 2.764695
vt -2.429842 2.472457
vt -1.309873 2.864941
vt 1.763271 1.247636
vt 2.428137 0.528604
vt 1.328528 0.689784
vt 1.810390 0.450347
vt 1.315444 0.263260
vt 1.831453 -0.314225
vt 1.862125 0.450347
vt 2.471289 0.323986
vt 2.442140 -0.386995
vt -1.353328 -0.421383
vt -2.191727 0.414767
vt -1.974133 -0.407874
vt -2.263259 -1.219864
vt -1.831864 -1.056330
vt -1.256672 -0.917227
vt 3.229675 1.947361
vt 2.761295 1.487590
vt 3.118759 1.588328
vt 2.896517 2.485393
vt 2.799012 1.911619
vt 2.567543 2.456011
vt 2.428138 2.025622
vt 2.456626 1.637561
vt 1.891912 -1.332785
vt 2.471289 -1.320570
vt 1.286294 -0.447721
vt 1.553909 -1.990239
vt 1.989049 -2.101740
vt 2.420794 -1.944695
vt -1.305314 -1.570928
vt -0.884110 -1.314547
vt -1.606557 -1.840984
vt -0.990763 -2.101740
vt -0.714018 -1.895556
vt -0.557504 -1.600943
vt 0.439795 -1.862923
vt 0.067823 -0.943116
vt 0.005951 -1.622095
vt -0.297171 -1.333476
vt -0.455625 -1.908271
vt -0.115539 -2.101740
vt 2.428137 0.861499
vt -0.557504 1.403813
vt -2.451140 2.932366
vt -2.451141 -0.418794
vt 3.229675 2.406778
vt 1.364942 -1.378695
vt -0.557504 -1.599635
s 0
usemtl Material
f 18/1/1 17/2/1 1/3/1
f 2/4/2 45/5/2 18/1/2
f 19/6/3 20/7/3 45/5/3
f 45/5/4 3/8/4 17/2/4
f 3/9/5 46/10/5 21/11/5
f 4/12/6 46/10/6 20/13/6
f 46/10/7 8/14/7 23/15/7
f 46/10/8 7/16/8 21/11/8
f 7/17/9 47/18/9 24/19/9
f 23/20/10 25/21/10 47/18/10
f 47/18/11 6/22/11 26/23/11
f 24/19/12 26/23/12 5/24/12
f 5/25/13 48/26/13 27/27/13
f 26/28/14 28/29/14 48/26/14
f 28/29/15 18/30/15 48/26/15
f 48/26/16 1/31/16 27/27/16
f 3/32/17 49/33/17 17/34/17
f 7/35/18 49/33/18 21/36/18
f 49/33/19 5/37/19 27/38/19
f 49/33/20 1/39/20 17/34/20
f 4/40/21 50/41/21 34/42/21
f 19/6/22 33/43/22 50/41/22
f 33/43/23 29/44/23 50/41/23
f 50/41/24 10/45/24 34/42/24
f 32/46/25 42/47/25 9/48/25
f 32/46/26 41/49/26 51/50/26
f 51/50/27 16/51/27 40/52/27
f 51/50/28 13/53/28 42/47/28
f 2/54/29 52/55/29 33/56/29
f 6/57/30 52/55/30 28/29/30
f 52/58/31 12/59/31 32/46/31
f 52/58/32 9/48/32 33/60/32
f 22/61/33 36/62/33 8/14/33
f 22/61/34 34/63/34 53/64/34
f 34/65/35 30/66/35 53/67/35
f 36/68/36 30/66/36 11/69/36
f 25/21/37 35/70/37 6/22/37
f 8/71/38 54/72/38 25/21/38
f 54/72/39 11/73/39 31/74/39
f 35/70/40 31/74/40 12/75/40
f 38/76/41 39/77/41 15/78/41
f 38/76/42 37/79/42 55/80/42
f 55/80/43 13/81/43 40/82/43
f 55/80/44 16/83/44 39/77/44
f 11/69/45 56/84/45 44/85/45
f 10/86/46 56/84/46 30/66/46
f 56/84/47 14/87/47 38/88/47
f 56/84/48 15/89/48 44/85/48
f 12/75/49 57/90/49 41/91/49
f 31/74/50 44/92/50 57/90/50
f 57/90/51 15/93/51 39/94/51
f 41/91/52 39/94/52 16/95/52
f 29/44/53 43/96/53 10/45/53
f 9/97/54 58/98/54 29/44/54
f 42/99/55 37/100/55 58/98/55
f 58/98/56 14/101/56 43/96/56
f 18/1/57 45/5/57 17/2/57
f 2/4/58 19/6/58 45/5/58
f 19/6/59 4/40/59 20/7/59
f 45/5/60 20/7/60 3/8/60
f 3/9/61 20/13/61 46/10/61
f 4/12/62 22/61/62 46/10/62
f 46/10/63 22/61/63 8/14/63
f 46/10/64 23/15/64 7/16/64
f 7/17/65 23/20/65 47/18/65
f 23/20/66 8/71/66 25/21/66
f 47/18/67 25/21/67 6/22/67
f 24/19/68 47/18/68 26/23/68
f 5/25/69 26/28/69 48/26/69
f 26/28/70 6/57/70 28/29/70
f 28/29/71 2/54/71 18/30/71
f 48/26/72 18/30/72 1/31/72
f 3/32/73 21/36/73 49/33/73
f 7/35/74 24/102/74 49/33/74
f 49/33/75 24/102/75 5/37/75
f 49/33/76 27/38/76 1/39/76
f 4/40/77 19/6/77 50/41/77
f 19/6/78 2/4/78 33/43/78
f 33/43/79 9/97/79 29/44/79
f 50/41/80 29/44/80 10/45/80
f 32/46/81 51/50/81 42/47/81
f 32/46/82 12/59/82 41/49/82
f 51/50/83 41/49/83 16/51/83
f 51/50/84 40/52/84 13/53/84
f 2/54/85 28/29/85 52/55/85
f 6/57/86 35/103/86 52/55/86
f 52/58/87 35/104/87 12/59/87
f 52/58/88 32/46/88 9/48/88
f 22/61/89 53/64/89 36/62/89
f 22/61/90 4/12/90 34/63/90
f 34/65/91 10/86/91 30/66/91
f 36/68/92 53/67/92 30/66/92
f 25/21/93 54/72/93 35/70/93
f 8/71/94 36/105/94 54/72/94
f 54/72/95 36/105/95 11/73/95
f 35/70/96 54/72/96 31/74/96
f 38/76/97 55/80/97 39/77/97
f 38/76/98 14/106/98 37/79/98
f 55/80/99 37/79/99 13/81/99
f 55/80/100 40/82/100 16/83/100
f 11/69/101 30/66/101 56/84/101
f 10/86/102 43/107/102 56/84/102
f 56/84/103 43/107/103 14/87/103
f 56/84/104 38/88/104 15/89/104
f 12/75/105 31/74/105 57/90/105
f 31/74/106 11/73/106 44/92/106
f 57/90/107 44/92/107 15/93/107
f 41/91/108 57/90/108 39/94/108
f 29/44/109 58/98/109 43/96/109
f 9/97/110 42/99/110 58/98/110
f 42/99/111 13/108/111 37/100/111
f 58/98/112 37/100/112 14/101/112
